<?xml version="1.0" encoding="utf-8"?>
<!-- Generator: Adobe Illustrator 25.2.3, SVG Export Plug-In . SVG Version: 6.00 Build 0)  -->
<svg version="1.1" id="Layer_1" xmlns="http://www.w3.org/2000/svg" xmlns:xlink="http://www.w3.org/1999/xlink" x="0px" y="0px"
	 width="2048px" height="1115px" viewBox="0 0 2048 1115" style="enable-background:new 0 0 2048 1115;" xml:space="preserve">
<style type="text/css">
	.st0{fill:#FFFFFF;}
</style>
<image style="overflow:visible;enable-background:new    ;" width="2048" height="1115" xlink:href="F3E5151F47104A4.png" >
</image>
<g>
	<path class="st0" d="M2024,1114c-673.6,0-1347.3,0-2021,0C3,758.4,3,402.8,3,47c673.6,0,1347.3,0,2021,0
		C2024,402.6,2024,758.3,2024,1114z M1064.6,634c-0.5-2.7-1-4.7-1.4-6.8c-6.1-36.3-16.1-71.5-32.2-104.7
		c-9.2-19-19.5-37.2-35.4-51.7c-19-17.4-42.2-17.5-61,0c-8.8,8.2-15,18.1-20.4,28.7c-9.8,19.2-17.1,39.4-22.7,60.2
		c-9.2,34.6-14.2,69.9-15.3,105.6c-0.3,9-3.6,16-9.9,21.4c-10.4,8.8-21.3,17.1-32.1,25.3c-5.2,4-10.9,3.4-16.4,0
		c-4.9-3-8.5-7.3-9.8-12.8c-1.7-7.1-3.2-14.3-3.9-21.6c-2.3-23.4-4-46.8-6.3-70.2c-1.1-10.8-3.2-21.5-8.8-31
		c-5.4-9.1-13.6-11.6-21.8-5.1c-7.3,5.8-14.4,12.5-19.6,20.1c-9.5,13.9-15.6,29.7-20.1,46c-0.5,1.8-1.2,3.5-2.2,6.3
		c-0.6-2.1-0.9-3-1.1-4c-3-12.1-7-23.7-15.8-32.9c-7.9-8.2-18.3-8.7-25.9-0.4c-5.3,5.7-10.3,11.9-14,18.7
		c-8.8,16.3-16.2,33.2-20.8,51.3c-0.4,1.5-1.1,2.9-2,5.1c-3.1-7.1-5.3-13.5-8.6-19.2c-6.7-11.3-12.7-23.4-21.4-33
		c-12.6-14-29.4-22.1-48-26.1c-5.4-1.1-10.1-3.3-13.9-8.2c-16.7-21.2-47.4-26.3-70.2-12.2c-19.1,11.8-33.4,28.3-45.7,46.8
		c-12,18.1-21.2,37.3-27.5,58.1c-6.2,20.4-11.5,41.1-13.2,62.4c-1.3,17.3-3,34.6-3,51.8c0.1,23.6,0.5,47.3,2.9,70.8
		c1.9,18.1,6.6,36,10.9,53.8c10,41.3,30,76.7,63,104.2c14.5,12.1,30.4,21.4,48.9,25.6c21.8,4.9,42,0.1,60.5-11.9
		c19.7-12.7,34.7-30.2,47.1-49.6c16.1-25.1,25.3-53.1,31.3-82.1c5.6-27,7.6-54.3,8.5-81.9c1.4-41.5-1.3-82.6-12.8-122.7
		c-0.9-3.3-0.8-7.3-0.1-10.7c1.5-6.8,3.5-13.5,5.8-20.1c4.9-14.1,10-28.2,15.5-42.1c1.6-4,4.6-7.8,7.9-10.6c4.1-3.5,8.1-1.4,8.6,3.8
		c0.3,2.8,0.4,5.7,0.2,8.5c-1.7,29.5-3.9,58.9-5.1,88.4c-0.6,14.8-0.4,29.7,0.9,44.4c1,11.6,9.7,18.8,19.8,19
		c9.8,0.2,18.4-7.1,21-18c4.3-18,4.4-36.3,3.6-54.7c-0.6-12.1-1.8-24.4-0.4-36.3c2.9-24.7,7.3-49.3,19-71.6
		c4.6-8.7,10.8-16.7,17.2-24.3c4.3-5,6.5-4.2,8.5,2c1.7,5.2,3.3,10.5,4,16c2.5,21.3,4.5,42.7,7.1,64.1c1.6,13.2,3.6,26.4,6,39.5
		c3.5,19,32.1,28.8,47.7,17.8c11.1-7.8,22.6-14.9,35-23.1c0,9.9-0.4,19.6,0.1,29.4c3.1,64.4,15.4,126.9,40.4,186.6
		c14.9,35.6,32.6,69.7,56.9,100c26,32.4,56.8,58.4,96.1,73.5c48.4,18.6,95.4,14.9,141.1-8.6c29.3-15.1,53.1-37,74.4-61.9
		c39.7-46.3,63.3-101.1,81.9-158.3c11.3-34.7,18.7-70.4,25.2-106.2c9.6-52.7,17.3-105.7,21.6-159c4.6-57.5,6.7-115.3,9.5-172.9
		c0.4-8.1,2.9-14.3,8-20.6c12.8-15.9,26.3-31.7,36.6-49.2c18.8-32,31.5-66.8,41.9-102.4c0.4-1.5,0.9-3,1.5-4.8
		c6.5,7.3,10,18.7,9.3,31.5c-1.1,19.9-2.9,39.8-4,59.8c-2.6,47.6-5.4,95.2-7.1,142.8c-1,27.4-1.3,55,4.7,82.1
		c2.7,12,6.8,23.4,16.3,31.9c9.4,8.5,21.6,8.8,31.4,0.9c2.8-2.3,5.8-4.9,7.5-8c8.9-16.2,18.2-32.1,25.8-48.9
		c12.4-27.4,20.3-56.4,28.1-85.3c2.5-9.2,4.9-18.5,7.4-27.7c1.2,1.3,1.5,2.5,1.7,3.7c1.9,11,3.4,22,5.8,32.9
		c3.8,17.5,9.4,34.4,21.2,48.6c16.7,20.1,41.3,22.2,60.6,4.7c18.7-16.9,31.2-38.1,40.3-61.3c12.8-32.6,16.8-66.8,17.2-101.5
		c0.3-25.9-3.8-51.4-9.5-76.7c-0.4-1.9,0-5,1.3-6.1c19.8-17.8,34.5-39.7,48.4-62c0.9-1.5,1.9-2.9,3.6-5.4c0,2.5,0.1,3.6,0,4.7
		c-1.5,13.9-2.9,27.8-4.4,41.7c-5.2,49.4-8.9,98.9-8,148.6c0.5,26.1,0.6,52.3,6.4,78c2.8,12.1,6.8,23.7,15.1,33.3
		c9.1,10.6,23.8,11.7,33.5,1.8c4.7-4.9,8.7-10.8,12-16.8c15.4-28.1,24.6-58.6,32-89.6c4-16.5,7.2-33.1,10.8-49.7
		c1.7-7.7,3.3-15.5,4.9-23.2c1.5,5.3,1.9,10.6,2.5,15.8c2.3,19.3,4.2,38.7,7.1,58c1.7,11.2,5.3,22.1,11.7,31.6
		c10.7,15.8,28,16.9,39.2,1.5c5.6-7.7,10.3-16.5,13.6-25.4c14.4-39,16-79.8,15.1-120.7c-0.5-25.2-6.1-49.8-14.7-73.6
		c-9-24.8-19.4-49-35.3-70.3c-5-6.6-10.7-12.7-16.4-18.9c-5.6-6.1-11.3-12.3-17.3-18c-5.8-5.4-10.6-11.7-16.8-16.7
		c-8.6-7-16.6-15-25.4-21.8c-4.7-3.7-10.5-6.2-16.1-8.6c-1.4-0.6-4.8,0.8-5.7,2.2c-2.2,3.4,0.3,6.2,2.7,8.7
		c12.1,12.4,24.5,24.5,36.3,37.1c17.4,18.6,34.2,37.5,46.9,60c15.9,28.2,27.3,58,34.3,89.5c6.8,30.7,5.6,61.5,2.5,92.4
		c-2,19.8-5.7,39.3-14.7,57.3c-2.3,4.6-5,9-7.6,13.5c-0.7,0-1.5-0.1-2.2-0.1c-2.6-6.7-5.7-13.3-7.8-20.3
		c-7.1-24.3-8.6-49.6-11.2-74.6c-1.1-10.8-1.9-21.6-3.2-32.3c-0.7-5.8-1.5-11.6-3-17.2c-1.1-4.1-4.4-6.7-8.9-6.5
		c-4.2,0.1-6.6,2.9-7.8,6.6c-0.6,1.9-0.9,3.9-1.2,5.9c-6.6,43.3-15,86.3-29.1,127.9c-7.5,22.3-16.5,44-30,63.5
		c-1.4,2.1-3.2,3.8-4.8,5.7c-0.5-0.2-1.1-0.4-1.6-0.6c-0.3-10.8-1.3-21.5-0.8-32.3c1.3-29.6,3.3-59.1,4.8-88.7
		c1-19.8,1.9-39.6,2.6-59.4c1.2-34.8,2.3-69.6-0.7-104.3c-1-12-1.8-24.2-8.2-35c-5.6-9.5-18.5-10.6-25.3-2c-2,2.6-3.7,5.5-5.1,8.5
		c-10.6,22.5-21.7,44.7-37.8,63.8c-6.4,7.7-13.4,14.9-20.6,22.8c-4.5-12.9-8.1-24.4-12.5-35.7c-7.1-18.3-17.6-34.3-33.7-46.2
		c-21.4-15.7-49.7-11.1-64.5,11c-11.2,16.6-13.9,35-10.3,54.5c0.6,3,0.8,6.4,0,9.3c-8.5,29.1-11.2,59.1-13.3,89.2
		c-0.9,12.9,0.1,26.3-2.7,38.8c-7.3,32.8-15.6,65.5-24.5,97.9c-8.7,31.7-19.9,62.6-36.8,91c-3.3,5.5-7,11-11.4,15.7
		c-4.2,4.6-9,4-12-1.3c-2.9-5.3-5.4-11.2-6.4-17.1c-3.5-19.3-1-38.5,2.5-57.5c4.3-23.4,9.6-46.7,14.4-70c6-29.4,11.9-58.8,17.9-88.1
		c4.8-23.3,9.6-46.7,9.8-70.7c0.2-22.8-7.4-42.1-25.2-56.9c-10.5-8.7-21.5-16.8-32-25.4c-1.8-1.4-3.1-4.2-3.4-6.5
		c-0.8-6.1-0.5-12.3-1.3-18.4c-1.1-9-3.5-17.7-9-25.1c-7.5-10.1-19.3-10.8-27.9-1.7c-1.5,1.6-2.8,3.3-3.9,5.2
		c-8.3,14.1-7,28.9-0.6,42.8c5.8,12.6,13.8,24.2,21.2,36.1c1.9,3.1,2.9,5.8,1.8,9.3c-5.9,18-11.3,36.2-17.8,54
		c-12.3,33.7-28.9,65.1-52.1,92.8c-1.2,1.4-2.5,2.8-4.5,4.9c-0.1-2.1-0.3-2.9-0.2-3.6c1.2-20.8,2.1-41.6,3.9-62.3
		c2.5-29.3,5.2-58.6,8.5-87.8c3.9-34.4,8.6-68.7,12.9-103.1c1.5-11.7,3-23.5,3.9-35.3c0.5-7.4-2.8-12.1-8.4-13.9
		c-6.4-2-11.6,0.3-15.5,5.2c-3.1,3.9-5.8,8.1-8.2,12.5c-3.7,7-7,14.2-10.7,21.9c-0.9-1.3-1.4-1.9-1.7-2.6
		c-11.3-23-29.4-38.7-52.4-49.1c-12.5-5.6-25.5-8.5-39.3-8.5c-19.9,0-38.3,5.5-55.3,15.2c-19.9,11.3-36.5,26.6-49.9,45.3
		c-13.5,18.9-25.1,38.9-32.5,61c-4.8,14.3-11.3,27.2-21.5,38.4c-12.6,13.8-27.3,24.9-43.4,34c-13.1,7.4-27,10.1-41.9,7.6
		c-4.3-0.7-5.9-2.6-6.4-7c-2.5-22.3-8.3-43.6-21.8-62c-8.9-12.2-16-13.8-29.4-7.7c-0.4-0.5-0.8-1-1.1-1.6c-2.4-4-5.9-6.4-10.7-5.9
		c-4.8,0.5-7.7,3.6-9.4,7.9c-0.6,1.5-1.3,3.1-1.5,4.8c-2.8,17.9-6.1,35.8-8.1,53.8c-1.8,15.5-1.3,31.3-5.7,46.5
		c-3.9,13.8-6.8,27.9-11.4,41.4c-5.3,15.6-11.8,30.7-18,46c-1,2.4-2.9,4.4-5.2,7.6c-1.1-4.9-2-8.3-2.5-11.7
		c-3.8-23.9-1.3-47.9-0.6-71.8c1.4-44.8,2.6-89.6,3.7-134.4c0.1-4.7,1.6-7.1,5.7-9.2c17.1-8.7,35.3-13.7,53.8-18.1
		c4.8-1.2,9.5-3.2,13.8-5.6c2-1.1,4.1-4.1,4-6.1c-0.2-2-2.8-4.5-4.9-5.4c-3.8-1.6-7.9-2.6-12-3c-14.8-1.3-29.1,1.4-43.1,6.3
		c-5.6,1.9-10.9,4.4-16.8,6.8c-0.2-1.9-0.4-3.5-0.6-5.2c-0.8-9.6-1-19.3-2.4-28.9c-0.9-6.2-3-12.2-5.2-18.1
		c-1.5-3.9-4.9-6.4-9.3-6.4c-4.5-0.1-7.4,2.6-9.5,6.3c-0.8,1.4-1.6,3-2,4.6c-2.6,10.5-5.9,20.9-7.6,31.5
		c-2.9,17.7-4.9,35.6-7.4,53.4c-0.4,2.7-1.5,5.5-3.1,7.7c-5.8,8.4-12.4,16.2-17.7,24.8c-5.3,8.4-9.6,17.5-13.9,26.4
		c-1.7,3.4-1.9,7.9,2.1,9.7c4,1.8,5.4-2.5,7.3-5.2c7.2-10.1,14.4-20.2,21.6-30.3c1.3,1.5,1.5,2.4,1.5,3.3
		c-0.2,14.1-0.7,28.3-0.4,42.4c0.6,26,1.1,52,2.7,77.9c1.6,25,8.5,48.8,21.1,70.7c9.1,15.7,25,16.1,35.3,1.2
		c0.6-0.8,1.1-1.6,1.7-2.5c8-13.3,11.9-28.2,16.3-42.8c2.5-8.2,4.7-16.4,7-24.6c1.7,4,2.3,7.9,3.3,11.8
		c4.1,16.1,10.6,30.9,24.3,41.4c13,10,27.8,8,37.5-5.3c2.3-3.2,4.3-6.8,5.9-10.4c6.3-14.2,8.7-29.3,10.7-44.5
		c1.7-13.2,2.9-26.4,4.3-39.7c0.2-0.1,0.5-0.3,0.8-0.3c1.5,0.1,3,0.4,4.5,0.5c27.1,2.6,50.4-4.2,67.7-26.7
		c6.3-8.2,13.1-15.9,19.7-23.9c1-1.2,2.1-2.1,3.4-3.4c0.4,1.1,0.7,1.4,0.7,1.7c-0.2,1.5-0.4,3-0.7,4.4c-6.6,32-8.2,64.5-7.5,97
		c0.7,36.1,7.2,71.2,19,105.3c6.5,18.9,14.9,36.7,29.4,51.1c14.3,14.2,33.2,18.2,51.5,9.9c22-10,39.3-26,52.5-45.7
		c11.6-17.2,21.4-35.7,31.8-53.7c3.6-6.3,6.7-12.8,10.7-20.5c0.1,2.2,0.3,3,0.2,3.7c-1.6,27.6-3.1,55.2-4.9,82.8
		c-0.2,2.5-1.9,5.3-3.8,7.1c-5.6,5.2-11.8,9.8-17.6,14.8c-27.9,24.1-58.7,43.4-92.3,58.6c-36.8,16.7-73.4,34-109.9,51.4
		c-11.2,5.3-22.1,11.5-32.8,17.9C1083,620.8,1074.2,627.4,1064.6,634z M390,719.2c-0.1-1.5-0.5-3.1-0.3-4.6
		c3.7-18.3,7.9-36.5,11.2-54.8c6.7-37.4,11.4-75.1,13.9-113c2.6-40.2,5.4-80.5,3.2-120.8c-1.4-26.6-3.7-53.1-6.6-79.6
		c-0.9-8.3-0.4-15.4,3.2-23c8-16.7,15.5-33.6,26.7-48.5c3.5-4.7,7.2-9.2,11.8-14.8c0,2.9,0.1,4,0,5.1c-1.6,28.8-3.7,57.5-4.7,86.3
		c-0.7,19.2,0.1,38.5,0.5,57.8c0.9,39.6,1.8,79.2,3,118.8c0.2,7.3,1.3,14.7,3.3,21.6c2.7,9.2,9.2,14.9,19.2,15.8
		c10,0.9,19-5.1,23-16.4c7.5-20.8,12-42.5,15.5-64.3c4.5-28.4,5.9-56.9,4.9-85.7c-0.2-6.8,0.3-13.7,1.6-20.3
		c2.4-12.2,5.7-24.3,8.6-36.4c7.7-31.7,15.7-63.4,27.9-93.8c6.2-15.7,13.1-31.2,24.8-43.6c4.8-5.1,10.6-9.6,16.6-13.3
		c4.6-2.8,7.4-1,8.3,4.4c0.9,5.4,2,10.9,1.8,16.3c-0.6,17.6-1.9,35.2-2.6,52.8c-1.4,37.3-5.4,74.4-3.5,111.8
		c1.5,28.8,2.6,57.6,4.3,86.3c0.7,11.2,2.6,22.2,9,31.9c6.7,10.2,17.7,13,27,5.4c6.4-5.2,12.2-12.1,15.9-19.5
		c7.6-14.9,13.7-30.7,20.3-46.1c1.9-4.5,3.5-9.1,5.3-13.9c0.7,0.5,1.1,0.7,1.2,0.9c1.4,4.4,2.7,8.9,4.2,13.4
		c6.9,21.7,16.4,41.8,32.4,58.4c14.7,15.3,33.6,16.3,48.1,1.9c3.5-3.5,7-7.4,9-11.9c7.6-17,15.4-34,21.4-51.5
		c13.8-40.1,21.3-81.9,29.7-123.3c1.7-8.3,1.1-17.1,1.3-25.7c0-1.1-1.4-2.3-2.2-3.4c-1.1,0.9-2.7,1.5-3.3,2.6
		c-1.7,3.2-3.2,6.6-4.3,10.1c-9.1,30.3-17.7,60.7-27.2,90.9c-8.6,27.2-18.1,54-31.2,79.4c-2.3,4.5-5.7,8.6-8.8,12.6
		c-1.9,2.4-4,2.3-5.4-0.6c-2-4-4.7-8-5.3-12.3c-2-13.6-4.3-27.4-4.4-41.1c-0.1-21.3,1.3-42.6,2.5-63.9c2-34.9,4.8-69.8,11.3-104.3
		c0.7-3.8,2.3-5.5,6.1-6.6c25.3-7.4,43.7-23,53.8-47.6c9.8-23.9-3.3-51.4-27.3-57.7c-16.6-4.4-31.7,0.3-45.3,10.1
		c-12.6,9.1-20.9,21.8-28.3,35.1c-12,21.5-21.5,44-26.7,68.1c-7.4,34.4-9.9,69.2-8.1,104.2c0.5,9.3,0,18.2-3.8,26.9
		c-2.7,6.1-4.4,12.6-6.9,18.7c-8.4,20.9-16.7,41.7-25.5,62.4c-2.4,5.7-6.2,10.8-9.4,16.1c-0.8-0.1-1.5-0.2-2.3-0.4
		c-0.9-6.3-2.4-12.6-2.5-18.9c-0.1-24.5-0.2-49,0.6-73.4c1.1-35.4,3-70.9,4.6-106.3c0.9-21.1,2.4-42.3,2.4-63.4
		c0-10.3-2.1-20.9-4.9-30.9c-3.9-13.9-16.5-20.9-30.5-17.2c-6.1,1.6-12.1,4.9-17,8.9c-12.9,10.2-21.4,24.1-28.7,38.6
		c-15.5,30.5-24.9,63.1-33.9,95.9c-1.5,5.5-3.1,11.1-4.7,16.6c-1.2-1.3-1.4-2.5-1.6-3.8c-3.2-19.1-6-38.2-9.7-57.1
		c-2.3-11.8-7-23-15.1-32.3c-6.3-7.3-13.7-12.7-24.2-11.3c-9.1,1.3-14.9,7.5-19.1,14.8c-10.5,18.2-20.6,36.5-30.6,54.9
		c-2.7,4.9-4.8,10.1-7.6,16.1c-2.9-11.8-5.5-22.6-8.3-33.4c-7.4-28.2-16.2-55.9-28.8-82.3c-13.4-28.1-31.3-52.7-54.3-73.7
		c-15.2-13.9-33-21.6-52.9-25.1c-3.7-0.6-6.3-1.9-8.3-5.2c-6.7-10.8-17.1-17.4-29.2-18.5c-22.3-1.9-40.2,9.8-56.4,23.2
		c-16,13.3-27.7,30.6-38.7,48.1c-10.9,17.3-20.2,35.4-28.1,54.2c-10.5,25.2-19.1,51-25.1,77.6c-3.8,16.9-8.2,33.7-10.9,50.7
		c-4.1,25.4-7.7,50.9-10.1,76.4c-2.1,22.3-2.6,44.7-2.9,67.1c-0.3,19.3,0.6,38.6,1.2,57.8c0.3,10.4,0.8,20.8,1.7,31.2
		c0.7,8.2,2,16.4,3.3,24.5c4,25.8,7.5,51.6,12.3,77.2c3.4,18.4,8,36.7,12.9,54.8c9.9,36.7,23.5,71.9,43.8,104.2c3,4.7,5.9,9.4,9,14
		c18.1,26.2,38.4,50.3,64.8,68.7c15.3,10.6,32.1,17,50.9,16.6c20.1-0.4,36.4-9.5,50.6-23.1c33.1-31.7,53.8-70.9,68-113.8
		c6.6-20.1,11.2-40.8,16.8-61.2C388,722.2,389.2,720.7,390,719.2z"/>
	<path d="M1064.6,634c9.6-6.6,18.4-13.2,27.8-18.8c10.6-6.4,21.5-12.6,32.8-17.9c36.5-17.4,73.1-34.6,109.9-51.4
		c33.6-15.2,64.4-34.5,92.3-58.6c5.8-5,12-9.6,17.6-14.8c1.9-1.7,3.7-4.6,3.8-7.1c1.8-27.6,3.3-55.2,4.9-82.8c0-0.7-0.1-1.5-0.2-3.7
		c-4,7.7-7.1,14.3-10.7,20.5c-10.4,18-20.3,36.4-31.8,53.7c-13.3,19.7-30.5,35.7-52.5,45.7c-18.3,8.3-37.2,4.3-51.5-9.9
		c-14.5-14.4-22.9-32.2-29.4-51.1c-11.7-34.1-18.2-69.2-19-105.3c-0.6-32.5,0.9-65,7.5-97c0.3-1.5,0.5-2.9,0.7-4.4
		c0-0.3-0.2-0.6-0.7-1.7c-1.3,1.3-2.5,2.2-3.4,3.4c-6.6,7.9-13.5,15.7-19.7,23.9c-17.3,22.5-40.6,29.3-67.7,26.7
		c-1.5-0.1-3-0.4-4.5-0.5c-0.3,0-0.6,0.2-0.8,0.3c-1.4,13.3-2.6,26.5-4.3,39.7c-2,15.2-4.4,30.4-10.7,44.5
		c-1.6,3.6-3.6,7.2-5.9,10.4c-9.7,13.2-24.6,15.3-37.5,5.3c-13.6-10.5-20.2-25.3-24.3-41.4c-1-3.8-1.6-7.8-3.3-11.8
		c-2.3,8.2-4.5,16.4-7,24.6c-4.4,14.7-8.3,29.5-16.3,42.8c-0.5,0.9-1.1,1.7-1.7,2.5c-10.4,14.9-26.3,14.5-35.3-1.2
		c-12.6-21.9-19.5-45.7-21.1-70.7c-1.7-25.9-2.2-51.9-2.7-77.9c-0.3-14.1,0.3-28.3,0.4-42.4c0-0.9-0.2-1.8-1.5-3.3
		c-7.2,10.1-14.4,20.2-21.6,30.3c-1.9,2.6-3.3,7-7.3,5.2c-4-1.8-3.7-6.3-2.1-9.7c4.4-9,8.7-18,13.9-26.4
		c5.4-8.6,11.9-16.4,17.7-24.8c1.5-2.2,2.7-5,3.1-7.7c2.6-17.8,4.5-35.7,7.4-53.4c1.8-10.6,5-21,7.6-31.5c0.4-1.6,1.2-3.1,2-4.6
		c2.1-3.7,4.9-6.4,9.5-6.3c4.5,0.1,7.9,2.5,9.3,6.4c2.2,5.9,4.3,12,5.2,18.1c1.4,9.5,1.6,19.2,2.4,28.9c0.1,1.6,0.3,3.2,0.6,5.2
		c5.9-2.4,11.2-4.9,16.8-6.8c13.9-4.9,28.3-7.6,43.1-6.3c4.1,0.4,8.2,1.4,12,3c2.1,0.9,4.7,3.4,4.9,5.4c0.2,2-2,5-4,6.1
		c-4.3,2.4-9,4.4-13.8,5.6c-18.5,4.5-36.8,9.4-53.8,18.1c-4.1,2.1-5.6,4.5-5.7,9.2c-1,44.8-2.3,89.6-3.7,134.4
		c-0.7,23.9-3.3,47.9,0.6,71.8c0.6,3.4,1.5,6.8,2.5,11.7c2.2-3.2,4.2-5.2,5.2-7.6c6.2-15.3,12.8-30.4,18-46
		c4.6-13.5,7.5-27.6,11.4-41.4c4.3-15.2,3.9-31,5.7-46.5c2.1-18,5.3-35.9,8.1-53.8c0.3-1.6,0.9-3.2,1.5-4.8c1.7-4.3,4.6-7.4,9.4-7.9
		c4.8-0.5,8.3,1.9,10.7,5.9c0.3,0.6,0.7,1.1,1.1,1.6c13.4-6.1,20.5-4.4,29.4,7.7c13.5,18.4,19.3,39.7,21.8,62c0.5,4.5,2.1,6.3,6.4,7
		c14.9,2.5,28.9-0.2,41.9-7.6c16.2-9.1,30.9-20.2,43.4-34c10.2-11.2,16.6-24.1,21.5-38.4c7.4-22,19-42,32.5-61
		c13.4-18.7,30-34,49.9-45.3c17-9.6,35.4-15.2,55.3-15.2c13.8,0,26.8,2.9,39.3,8.5c23,10.4,41.1,26.1,52.4,49.1
		c0.3,0.7,0.9,1.3,1.7,2.6c3.8-7.7,7-15,10.7-21.9c2.3-4.4,5.1-8.6,8.2-12.5c3.9-4.9,9.2-7.2,15.5-5.2c5.5,1.8,8.9,6.5,8.4,13.9
		c-0.8,11.8-2.4,23.5-3.9,35.3c-4.3,34.4-9,68.7-12.9,103.1c-3.3,29.2-6.1,58.5-8.5,87.8c-1.7,20.7-2.6,41.5-3.9,62.3
		c0,0.8,0.1,1.6,0.2,3.6c2-2.2,3.3-3.5,4.5-4.9c23.2-27.7,39.7-59.1,52.1-92.8c6.5-17.8,11.9-36,17.8-54c1.1-3.5,0.2-6.2-1.8-9.3
		c-7.4-11.8-15.4-23.5-21.2-36.1c-6.3-13.8-7.7-28.6,0.6-42.8c1.1-1.9,2.4-3.6,3.9-5.2c8.6-9.1,20.4-8.4,27.9,1.7
		c5.5,7.4,7.9,16.1,9,25.1c0.7,6.1,0.5,12.3,1.3,18.4c0.3,2.3,1.6,5.1,3.4,6.5c10.5,8.6,21.5,16.7,32,25.4
		c17.7,14.7,25.4,34.1,25.2,56.9c-0.2,24-5.1,47.3-9.8,70.7c-6,29.4-11.9,58.8-17.9,88.1c-4.8,23.3-10,46.6-14.4,70
		c-3.5,19-6,38.2-2.5,57.5c1.1,5.9,3.5,11.8,6.4,17.1c3,5.4,7.8,5.9,12,1.3c4.3-4.7,8.1-10.2,11.4-15.7c17-28.4,28.2-59.3,36.8-91
		c8.9-32.4,17.2-65.1,24.5-97.9c2.8-12.5,1.8-25.8,2.7-38.8c2.1-30.1,4.8-60.1,13.3-89.2c0.8-2.9,0.6-6.3,0-9.3
		c-3.6-19.5-0.9-37.9,10.3-54.5c14.9-22.1,43.1-26.7,64.5-11c16.1,11.8,26.6,27.9,33.7,46.2c4.4,11.3,8,22.9,12.5,35.7
		c7.2-7.9,14.1-15.1,20.6-22.8c16.1-19.2,27.2-41.3,37.8-63.8c1.4-3,3.1-5.9,5.1-8.5c6.8-8.6,19.7-7.5,25.3,2
		c6.4,10.8,7.2,23,8.2,35c2.9,34.7,1.9,69.5,0.7,104.3c-0.7,19.8-1.6,39.6-2.6,59.4c-1.5,29.6-3.5,59.1-4.8,88.7
		c-0.5,10.7,0.5,21.5,0.8,32.3c0.5,0.2,1.1,0.4,1.6,0.6c1.6-1.9,3.4-3.7,4.8-5.7c13.5-19.5,22.5-41.2,30-63.5
		c14.1-41.6,22.5-84.6,29.1-127.9c0.3-2,0.6-4,1.2-5.9c1.2-3.8,3.6-6.5,7.8-6.6c4.5-0.1,7.8,2.5,8.9,6.5c1.5,5.6,2.3,11.4,3,17.2
		c1.2,10.8,2,21.6,3.2,32.3c2.6,25,4.1,50.3,11.2,74.6c2,6.9,5.1,13.5,7.8,20.3c0.7,0,1.5,0.1,2.2,0.1c2.5-4.5,5.3-8.9,7.6-13.5
		c9-18,12.7-37.5,14.7-57.3c3.2-30.9,4.4-61.8-2.5-92.4c-7-31.5-18.4-61.3-34.3-89.5c-12.7-22.5-29.5-41.4-46.9-60
		c-11.9-12.6-24.2-24.7-36.3-37.1c-2.4-2.4-4.9-5.3-2.7-8.7c0.9-1.5,4.3-2.8,5.7-2.2c5.6,2.4,11.3,4.9,16.1,8.6
		c8.8,6.8,16.7,14.8,25.4,21.8c6.2,5,11,11.3,16.8,16.7c6.1,5.7,11.7,11.8,17.3,18c5.6,6.1,11.4,12.2,16.4,18.9
		c15.9,21.3,26.3,45.5,35.3,70.3c8.6,23.8,14.2,48.4,14.7,73.6c0.9,40.9-0.7,81.7-15.1,120.7c-3.3,8.9-8,17.7-13.6,25.4
		c-11.2,15.3-28.6,14.3-39.2-1.5c-6.5-9.6-10.1-20.4-11.7-31.6c-2.9-19.3-4.8-38.6-7.1-58c-0.6-5.2-1-10.5-2.5-15.8
		c-1.6,7.7-3.2,15.5-4.9,23.2c-3.6,16.6-6.9,33.2-10.8,49.7c-7.4,31-16.6,61.4-32,89.6c-3.3,6-7.2,11.9-12,16.8
		c-9.7,9.9-24.4,8.7-33.5-1.8c-8.3-9.7-12.3-21.3-15.1-33.3c-5.8-25.7-5.9-51.8-6.4-78c-0.9-49.7,2.7-99.2,8-148.6
		c1.5-13.9,3-27.8,4.4-41.7c0.1-1.1,0-2.2,0-4.7c-1.7,2.6-2.7,4-3.6,5.4c-14,22.4-28.6,44.2-48.4,62c-1.3,1.1-1.7,4.2-1.3,6.1
		c5.7,25.3,9.8,50.8,9.5,76.7c-0.4,34.7-4.4,68.9-17.2,101.5c-9.1,23.2-21.6,44.4-40.3,61.3c-19.3,17.5-43.9,15.4-60.6-4.7
		c-11.7-14.1-17.3-31-21.2-48.6c-2.4-10.9-3.9-21.9-5.8-32.9c-0.2-1.2-0.5-2.5-1.7-3.7c-2.4,9.2-4.8,18.5-7.4,27.7
		c-7.9,28.9-15.8,57.9-28.1,85.3c-7.6,16.8-16.9,32.7-25.8,48.9c-1.7,3.1-4.6,5.7-7.5,8c-9.8,8-22.1,7.6-31.4-0.9
		c-9.4-8.5-13.6-19.9-16.3-31.9c-6-27.1-5.7-54.7-4.7-82.1c1.7-47.6,4.5-95.2,7.1-142.8c1.1-19.9,2.8-39.8,4-59.8
		c0.7-12.8-2.8-24.2-9.3-31.5c-0.6,1.9-1.1,3.3-1.5,4.8c-10.4,35.6-23.2,70.4-41.9,102.4c-10.3,17.5-23.8,33.3-36.6,49.2
		c-5.1,6.3-7.6,12.5-8,20.6c-2.8,57.7-4.9,115.4-9.5,172.9c-4.3,53.3-12,106.3-21.6,159c-6.5,35.9-13.9,71.5-25.2,106.2
		c-18.6,57.3-42.2,112-81.9,158.3c-21.3,24.8-45,46.8-74.4,61.9c-45.7,23.5-92.7,27.2-141.1,8.6c-39.3-15.1-70.1-41.1-96.1-73.5
		c-24.3-30.3-42-64.4-56.9-100c-25-59.7-37.4-122.1-40.4-186.6c-0.5-9.7-0.1-19.5-0.1-29.4c-12.4,8.2-23.9,15.3-35,23.1
		c-15.6,10.9-44.2,1.2-47.7-17.8c-2.4-13.1-4.4-26.3-6-39.5c-2.6-21.3-4.5-42.7-7.1-64.1c-0.6-5.4-2.3-10.7-4-16
		c-2-6.2-4.2-7.1-8.5-2c-6.4,7.6-12.6,15.6-17.2,24.3c-11.7,22.3-16.1,46.9-19,71.6c-1.4,11.9-0.1,24.2,0.4,36.3
		c0.8,18.4,0.7,36.7-3.6,54.7c-2.6,10.9-11.2,18.2-21,18c-10.1-0.2-18.8-7.4-19.8-19c-1.3-14.7-1.5-29.6-0.9-44.4
		c1.3-29.5,3.4-59,5.1-88.4c0.2-2.8,0-5.7-0.2-8.5c-0.5-5.2-4.6-7.3-8.6-3.8c-3.3,2.8-6.3,6.6-7.9,10.6c-5.6,13.9-10.6,28-15.5,42.1
		c-2.3,6.6-4.3,13.3-5.8,20.1c-0.8,3.4-0.9,7.4,0.1,10.7c11.5,40.2,14.2,81.2,12.8,122.7c-0.9,27.5-2.9,54.9-8.5,81.9
		c-6,29-15.3,57-31.3,82.1c-12.4,19.5-27.5,36.9-47.1,49.6c-18.5,12-38.7,16.7-60.5,11.9c-18.5-4.1-34.5-13.5-48.9-25.6
		c-33-27.5-53-62.9-63-104.2c-4.3-17.8-9-35.7-10.9-53.8c-2.4-23.5-2.9-47.2-2.9-70.8c0-17.3,1.7-34.6,3-51.8
		c1.6-21.4,7-42,13.2-62.4c6.2-20.7,15.5-40,27.5-58.1c12.3-18.5,26.6-35,45.7-46.8c22.9-14.1,53.6-9,70.2,12.2
		c3.8,4.9,8.6,7,13.9,8.2c18.6,4,35.4,12.1,48,26.1c8.7,9.6,14.7,21.7,21.4,33c3.4,5.7,5.5,12.1,8.6,19.2c0.9-2.3,1.6-3.7,2-5.1
		c4.6-18,12-35,20.8-51.3c3.7-6.8,8.8-13,14-18.7c7.6-8.3,18-7.8,25.9,0.4c8.9,9.2,12.9,20.8,15.8,32.9c0.2,1,0.5,1.9,1.1,4
		c1-2.8,1.7-4.5,2.2-6.3c4.5-16.3,10.6-32.1,20.1-46c5.2-7.6,12.3-14.4,19.6-20.1c8.2-6.5,16.4-4,21.8,5.1c5.7,9.5,7.8,20.2,8.8,31
		c2.3,23.4,4,46.8,6.3,70.2c0.7,7.3,2.2,14.5,3.9,21.6c1.3,5.5,4.9,9.8,9.8,12.8c5.5,3.3,11.1,4,16.4,0
		c10.9-8.2,21.7-16.5,32.1-25.3c6.4-5.4,9.6-12.4,9.9-21.4c1.1-35.7,6.1-71,15.3-105.6c5.5-20.8,12.9-41,22.7-60.2
		c5.4-10.6,11.6-20.5,20.4-28.7c18.8-17.5,42-17.3,61,0c15.8,14.5,26.2,32.7,35.4,51.7c16.1,33.2,26.1,68.4,32.2,104.7
		C1063.6,629.2,1064.1,631.3,1064.6,634z M1347.8,486.7c-3.4,2.7-5.9,4.6-8.3,6.6c-29,24.3-60.5,44.7-94.8,60.7
		c-22.2,10.3-44.3,20.8-66,32.2c-24.7,13-50.9,23.3-73.7,39.8c-1.6,1.2-3.3,2.2-5.2,3c-11.3,5.1-20.4,13.1-29.1,21.7
		c-2.9,2.8-4.1,5.6-3.7,9.7c2.1,24.5,1.6,48.9-0.9,73.3c-3.3,32.1-8.4,63.8-21,93.8c-4.5,10.7-9.9,20.7-18.3,29
		c-14.4,14.3-33.9,10.6-42.4-7.9c-5-10.9-6.8-22.4-6.7-34c0.2-31.4,5.9-61.7,18.8-90.4c10.3-23,25.5-42.9,41.1-62.4
		c1.7-2.2,3-5.8,2.6-8.4c-2.7-17.4-5.2-34.9-9.1-52.1c-6.4-28-15.8-55.1-29-80.7c-6.6-12.7-13.4-25.2-23.9-35.5
		c-10-9.9-21.5-10.5-31.9-1.1c-2.3,2.1-4.5,4.5-6.4,7c-11.7,15.5-18.9,33.3-25,51.5c-20,59.9-24.4,121.5-20.4,184.1
		c3.2,50.3,12.3,99.5,27.7,147.5c14.3,44.8,33.1,87.3,62.8,124.3c23.7,29.5,51.6,53.9,87.4,68c32.3,12.7,64.9,16,97.8,1.9
		c19.8-8.5,37.3-20.3,53.2-34.7c27.6-25,48.3-55,64-88.5c19.5-41.4,33.2-84.9,39.1-130.2c5.7-44.1,10.3-88.4,13.1-132.7
		c3.8-58.8,5.5-117.8,8-176.7C1348,499.5,1347.8,493.7,1347.8,486.7z M1204.3,402.4c0.3,4,0.5,7.5,0.8,10.9
		c1.7,16.8,4.6,33.4,12.6,48.5c10.7,20.3,23.9,23.7,43.4,11.6c14-8.7,25.8-20.1,35.5-33.3c17.7-24.1,32.4-50,46.3-76.3
		c8.6-16.3,16.6-32.4,18.9-51.4c5.6-46.3,15.6-91.9,30-136.4c1.6-4.9,0.9-8.5-2-12.4c-11-15-25.1-26.1-42.1-33.5
		c-13.1-5.7-26.6-5.8-39,1.5c-8.6,5.1-17,11.3-24,18.4c-18.4,18.6-30.8,41.3-40.7,65.3c-8,19.3-15.3,38.9-21.8,58.8
		C1208.6,315.8,1203.4,359,1204.3,402.4z M449.7,763.5c-0.5-0.2-1.1-0.3-1.6-0.5c-0.6,1.2-1.6,2.4-1.6,3.6
		c-0.6,10.3-1.2,20.6-1.5,30.9c-1,29.9,0,59.6,5,89.1c4.8,28.3,9.6,56.5,20,83.4c8.1,21,18.7,40.6,36.6,55.2
		c12.8,10.5,26.8,17.4,44.1,15.9c15.2-1.3,27.7-8.4,37.6-19c11.6-12.3,22.6-25.4,31.8-39.5c26.2-40.2,37.8-85.3,40.8-132.7
		c2.3-36.7,2.7-73.3-5-109.5c-1.7-8.2-3.6-16.5-5.4-24.7c-1.6,1-2,1.8-2.4,2.7c-3.7,10.8-6.9,21.9-12.2,32
		c-6.8,13-14.1,25.6-21.8,38.1c-3.1,5-7.7,9.1-11.5,13.7c-1.6,1.9-2.4,4.6-4.3,6.3c-2.1,1.9-5.1,2.7-7.3,4.4
		c-17.3,13.8-36.8,22.7-58.8,25.4c-21.6,2.6-40.7-3.3-55.8-19.5C461.8,803.3,452,785.2,449.7,763.5z M564,612.8
		c0.6,3.3,1,5.2,1.4,7.1c2,10.3,2,20.5-0.1,30.8c-5.1,24.7-17.8,45.4-34.7,63.5c-18.8,20.2-40,37.1-66.9,45.5
		c-2.6,0.8-3.3,2.1-2.9,4.7c2,15,7,28.6,16.8,40.5c14.8,18,33.9,24.7,56.5,21.7c17-2.3,32.2-9.3,45.8-19.8
		c21.1-16.3,34.6-38.1,44.7-62.2c6-14.3,10.5-29.1,15.9-43.6c2-5.3,1.8-10.4-0.6-15.3c-6.1-12.7-11.8-25.8-19.2-37.8
		C608.1,627.4,586.8,620,564,612.8z M1756.2,279.2c-2.1,0.8-2.7,1-3.2,1.3c-20.9,10.5-42.6,13.9-65.2,6.3c-4.7-1.6-5.5,0.1-5.4,4.2
		c0.2,21.3,0.3,42.6,0.4,63.8c0.2,28.6-0.1,57.3,0.6,85.9c0.4,15.4,1.2,31,4,46.1c3.1,16.4,11.3,18.6,24.2,8.1
		c12.4-10,21.2-22.9,28.3-37c9.8-19.4,15.4-40,18.9-61.6c3-18.5,5.1-36.9,4.2-55.5c-0.5-10.5-2.2-21-3.4-31.5
		C1758.5,299.6,1757.4,289.9,1756.2,279.2z M459.4,750.3c1.9,0.1,2.2,0.2,2.5,0.1c0.8-0.2,1.6-0.5,2.4-0.8
		c42.4-17.2,71.3-47.5,86.5-90.5c4.8-13.5,6.4-27.5,1.1-41.5c-1.7-4.5-3.9-6-8.6-4.5c-18.5,5.7-33.4,16.3-44.7,31.9
		c-16.3,22.6-26.6,48-33.5,74.7C462.5,729.6,461.3,739.8,459.4,750.3z M1657.1,229c15.4-0.9,22.4,4.9,24.2,19.5
		c0.5,3.8,0.9,7.6,0.8,11.5c-0.1,3.5,1.4,5.4,4.5,6.9c21,9.9,41.7,7.8,62.2-1.7c2.9-1.3,2.9-3.2,2.1-5.6
		c-3.6-10.9-6.8-21.9-10.9-32.6c-6.5-17.3-16.1-32.5-31.7-43.2c-9.1-6.3-18.7-8.4-29.3-4c-8,3.4-14.1,8.6-17.7,16.6
		C1656.6,206.7,1654.8,217.4,1657.1,229z M1042.2,688.5c-0.9,0.3-1.4,0.2-1.6,0.4c-0.6,0.6-1.1,1.2-1.6,1.9
		c-16.8,23.3-28.3,49-34.1,77.1c-3.6,17.4-8.1,34.8-7.2,52.8c0.4,6.9,1.6,13.9,3.6,20.6c2.3,7.9,6.9,8.6,12,2.2
		c2.9-3.6,5.6-7.6,7.1-11.9c4.1-11.4,8.3-22.9,11.1-34.7c8-34,10.8-68.7,11.1-103.6C1042.7,691.7,1042.4,690.1,1042.2,688.5z
		 M1022,250.9c0,2.6,0,3.9,0,5.2c0.3,17.8,0.4,35.6,1.1,53.4c0.5,13.1,1.5,26.2,2.9,39.3c0.5,4.6,2.7,9,4.2,13.4c0.7,0,1.4,0,2,0.1
		c2.3-4.6,5-8.9,6.7-13.7c7-19,10.8-38.7,14.2-58.6c1.5-8.6,0.5-14.3-8.3-18c-4.3-1.8-7.8-5.6-11.3-8.9
		C1029.9,259.5,1026.5,255.6,1022,250.9z M540.7,603.7c0-0.6,0.1-1.3,0.1-1.9c-2.1-0.3-4.2-0.6-6.3-0.8c-0.4-0.1-0.9-0.1-1.3-0.3
		c-1.6-0.8-3-2.3-4.6-2.5c-11.4-1.3-21.3,1.8-29.4,10.4c-14,15-24.8,31.7-32.3,51.1c-5,13-8.9,26.1-11.9,39.5c-0.3,1.4,0.6,3,1,4.5
		c1.2-1.1,2.8-1.9,3.4-3.2c5.4-12.5,10.5-25.2,16-37.6c2.7-6.2,5.3-12.9,9.5-18.1c5.5-6.9,12.3-12.7,18.8-18.7
		C514.5,616,527.1,609.1,540.7,603.7z M1053.4,255c0.4-1.5,0.7-1.9,0.7-2.4c-1.5-16.4-4.9-32.2-13-46.7c-2.2-4-5.3-7.7-8.6-10.9
		c-4.2-4.1-7.9-3.1-9.8,2.5c-1.3,3.9-2,8.1-2,12.1c0,15.9,9.1,27,20.4,36.6C1044.9,249.5,1049.1,252,1053.4,255z M1505.8,179.3
		c1.5-8.8-3.5-22.5-9.2-25.2C1493.8,161.2,1497.7,172.1,1505.8,179.3z M448.1,752.6c2.7-15.2,5.5-30.9,8.3-46.7c-2-1-3.1,0-3.4,2.9
		c-1.7,14-3.5,28-5.3,42C447.6,751.6,448,752.4,448.1,752.6z"/>
	<path d="M390,719.2c-0.8,1.5-2,3-2.4,4.7c-5.6,20.4-10.2,41.1-16.8,61.2c-14.2,42.9-34.9,82.1-68,113.8
		c-14.1,13.5-30.5,22.6-50.6,23.1c-18.8,0.4-35.6-6-50.9-16.6c-26.4-18.4-46.6-42.5-64.8-68.7c-3.2-4.6-6.1-9.3-9-14
		c-20.3-32.3-33.9-67.5-43.8-104.2c-4.9-18.1-9.5-36.4-12.9-54.8c-4.7-25.6-8.3-51.5-12.3-77.2c-1.3-8.1-2.6-16.3-3.3-24.5
		c-0.9-10.4-1.4-20.8-1.7-31.2c-0.6-19.3-1.5-38.6-1.2-57.8c0.3-22.4,0.9-44.8,2.9-67.1c2.4-25.6,6-51.1,10.1-76.4
		c2.7-17,7.1-33.8,10.9-50.7c6-26.6,14.5-52.5,25.1-77.6c7.9-18.8,17.2-36.9,28.1-54.2c11.1-17.6,22.8-34.8,38.7-48.1
		c16.1-13.4,34.1-25,56.4-23.2c12.1,1,22.5,7.7,29.2,18.5c2.1,3.4,4.6,4.6,8.3,5.2c19.9,3.4,37.7,11.2,52.9,25.1
		c23,21,40.9,45.6,54.3,73.7c12.6,26.4,21.4,54.1,28.8,82.3c2.8,10.7,5.4,21.6,8.3,33.4c2.8-5.9,4.9-11.2,7.6-16.1
		c10.1-18.4,20.1-36.8,30.6-54.9c4.2-7.3,9.9-13.5,19.1-14.8c10.5-1.5,17.9,3.9,24.2,11.3c8.1,9.3,12.7,20.5,15.1,32.3
		c3.7,19,6.5,38.1,9.7,57.1c0.2,1.2,0.4,2.4,1.6,3.8c1.6-5.5,3.1-11.1,4.7-16.6c9.1-32.8,18.5-65.4,33.9-95.9
		c7.3-14.5,15.8-28.4,28.7-38.6c5-3.9,11-7.3,17-8.9c14-3.7,26.6,3.4,30.5,17.2c2.8,10,4.9,20.6,4.9,30.9
		c0.1,21.1-1.5,42.3-2.4,63.4c-1.5,35.4-3.4,70.9-4.6,106.3c-0.8,24.5-0.7,48.9-0.6,73.4c0,6.3,1.6,12.6,2.5,18.9
		c0.8,0.1,1.5,0.2,2.3,0.4c3.2-5.4,7-10.4,9.4-16.1c8.8-20.7,17.1-41.6,25.5-62.4c2.5-6.2,4.2-12.7,6.9-18.7
		c3.8-8.7,4.2-17.6,3.8-26.9c-1.8-35.1,0.7-69.9,8.1-104.2c5.2-24.1,14.6-46.6,26.7-68.1c7.5-13.3,15.7-26,28.3-35.1
		c13.6-9.8,28.6-14.4,45.3-10.1c24,6.3,37,33.8,27.3,57.7c-10,24.6-28.5,40.1-53.8,47.6c-3.8,1.1-5.4,2.9-6.1,6.6
		c-6.4,34.5-9.2,69.3-11.3,104.3c-1.2,21.3-2.6,42.6-2.5,63.9c0.1,13.7,2.4,27.5,4.4,41.1c0.6,4.3,3.4,8.2,5.3,12.3
		c1.4,2.9,3.6,3,5.4,0.6c3.1-4.1,6.5-8.1,8.8-12.6c13.1-25.4,22.6-52.3,31.2-79.4c9.5-30.2,18.1-60.6,27.2-90.9
		c1-3.5,2.6-6.8,4.3-10.1c0.6-1.1,2.2-1.8,3.3-2.6c0.8,1.1,2.3,2.3,2.2,3.4c-0.2,8.6,0.3,17.4-1.3,25.7
		c-8.4,41.5-15.9,83.2-29.7,123.3c-6.1,17.6-13.9,34.5-21.4,51.5c-2,4.4-5.5,8.4-9,11.9c-14.5,14.4-33.3,13.5-48.1-1.9
		c-16-16.6-25.6-36.8-32.4-58.4c-1.4-4.4-2.7-8.9-4.2-13.4c-0.1-0.2-0.5-0.4-1.2-0.9c-1.8,4.7-3.4,9.4-5.3,13.9
		c-6.6,15.4-12.7,31.2-20.3,46.1c-3.7,7.3-9.5,14.2-15.9,19.5c-9.3,7.6-20.3,4.8-27-5.4c-6.4-9.7-8.4-20.7-9-31.9
		c-1.7-28.8-2.9-57.6-4.3-86.3c-1.9-37.4,2-74.5,3.5-111.8c0.7-17.6,2-35.2,2.6-52.8c0.2-5.4-0.9-10.9-1.8-16.3
		c-0.9-5.4-3.7-7.2-8.3-4.4c-6,3.7-11.8,8.1-16.6,13.3c-11.7,12.5-18.6,28-24.8,43.6c-12.1,30.4-20.2,62-27.9,93.8
		c-2.9,12.1-6.2,24.2-8.6,36.4c-1.3,6.6-1.9,13.6-1.6,20.3c1,28.7-0.3,57.3-4.9,85.7c-3.5,21.8-8,43.5-15.5,64.3
		c-4,11.3-13.1,17.2-23,16.4c-9.9-0.9-16.5-6.6-19.2-15.8c-2-7-3.1-14.4-3.3-21.6c-1.2-39.6-2.1-79.2-3-118.8
		c-0.4-19.3-1.2-38.6-0.5-57.8c1-28.8,3.1-57.5,4.7-86.3c0.1-1.1,0-2.3,0-5.1c-4.5,5.7-8.3,10.2-11.8,14.8
		c-11.2,14.9-18.7,31.8-26.7,48.5c-3.6,7.6-4.1,14.7-3.2,23c2.8,26.5,5.1,53,6.6,79.6c2.2,40.3-0.6,80.6-3.2,120.8
		c-2.5,37.9-7.2,75.6-13.9,113c-3.3,18.3-7.5,36.5-11.2,54.8C389.5,716.1,389.9,717.7,390,719.2z M394.2,370.7
		c-0.4-0.1-0.7-0.2-1.1-0.2c-0.4,0.6-0.9,1.3-1.3,1.9c-12.4,22.3-24.7,44.6-37.4,66.8c-8.1,14.1-16.9,27.8-28.3,39.5
		c-13.8,14.2-28.5,27.2-47.7,33.8c-21.7,7.5-43.6-3.3-55.3-20.5c-7.3-10.8-9-23.1-9.1-35.8c0-3.2,0-6.4,0.6-9.4
		c0.2-1.3,1.9-2.8,3.2-3.3c0.8-0.3,2.7,1.2,3.3,2.3c1,1.9,1.3,4.1,2,6.1c3.2,9.9,5.1,20.5,9.7,29.7c8.8,17.2,29.5,23.3,46.9,15
		c22.2-10.5,40.1-26.6,52.9-47c19.3-30.7,36.5-62.7,54.4-94.3c2.9-5.1,5-10.2,4-16.8c-5.5-38.7-14.6-76.5-27.9-113.3
		c-11.1-30.7-25.9-59.3-49.3-82.5c-12.6-12.6-26.2-24.3-43.8-29.7c-2.2-0.7-4.6-0.9-7.7-1.5c1.3,4.1,2.5,7,3.2,10.1
		c4.2,18.7,5.1,37.7,2.2,56.6c-5.4,35.5-14.1,70.3-28.4,103.3c-21,48.8-51.2,90.9-92.1,125.1c-5.1,4.3-8.8,8.8-8,16
		c0.4,3.6-0.4,7.3-0.5,10.9c-0.4,14.3-0.9,28.6-0.9,42.9c0.1,19.8,0.2,39.6,1.1,59.3c0.8,18.9,2.3,37.7,4.1,56.5
		c2.4,25,4.8,49.9,8.3,74.7c2.6,18.3,6.2,36.6,10.7,54.6c5.3,21,11.5,41.8,18.5,62.2c9.4,27.6,23.1,53.2,41.9,75.7
		c6,7.2,13.2,13.7,20.7,19.3c9.7,7.2,20.5,7.2,30.9,0.6c12.3-7.9,22.2-18.4,31-29.9c20.1-26.5,34.1-56.3,44.4-87.8
		c16.6-50.8,26.9-103,34.5-155.8c5.9-41.2,10.9-82.6,11.8-124.3c0.7-30.1,0-60.3-0.3-90.4C395.4,384.3,394.6,377.5,394.2,370.7z
		 M141.6,386.1c0.4,0.3,0.9,0.6,1.3,1c1.5-1,3.1-1.8,4.4-3c15.6-14.3,29.3-30.2,41.9-47.1c26.1-35.1,45-73.7,56.5-115.9
		c3.6-13.4,6.2-27.1,8.3-40.8c2.9-18.6,1.7-37-7.2-54c-2.6-4.9-6.2-9.5-10-13.6c-4.2-4.6-8.3-4.8-12.5-0.4
		c-4.6,4.8-8.9,9.9-12.4,15.5c-10.3,15.9-18.3,33.1-24.1,51.2c-5.3,16.4-10.8,32.7-16.1,49.1c-0.6,1.8-0.1,3.9-0.1,6.4
		c-0.2,0.2-1.7,1-2.1,2.2c-1.5,4.6-2.9,9.2-3.8,13.9c-5.4,26.6-11,53.1-15.9,79.8c-1.9,10.3-2.1,20.8-3.5,31.2
		C145.1,369.8,143.2,377.9,141.6,386.1z M760.4,222.5c8.5-2.9,14.3-7.4,19.7-12.6c6-5.9,11.2-12.4,12.2-21.2
		c0.6-5.2-1.9-11.1-5.3-12c-5.2-1.4-8.3,2.3-10.3,6c-4.2,8-8,16.3-11.6,24.7C763.2,211.9,762.2,216.7,760.4,222.5z"/>
	<path class="st0" d="M1347.8,486.7c0,7,0.2,12.8,0,18.6c-2.5,58.9-4.2,117.9-8,176.7c-2.9,44.4-7.4,88.7-13.1,132.7
		c-5.9,45.3-19.6,88.8-39.1,130.2c-15.8,33.5-36.5,63.5-64,88.5c-15.9,14.4-33.5,26.2-53.2,34.7c-32.9,14.1-65.5,10.8-97.8-1.9
		c-35.7-14-63.6-38.4-87.4-68c-29.7-37-48.4-79.6-62.8-124.3c-15.4-48-24.5-97.2-27.7-147.5c-4-62.5,0.4-124.2,20.4-184.1
		c6.1-18.2,13.2-36,25-51.5c1.9-2.5,4-4.9,6.4-7c10.4-9.4,21.9-8.7,31.9,1.1c10.4,10.2,17.3,22.7,23.9,35.5
		c13.2,25.6,22.6,52.7,29,80.7c3.9,17.2,6.4,34.7,9.1,52.1c0.4,2.7-0.9,6.3-2.6,8.4c-15.6,19.6-30.8,39.4-41.1,62.4
		c-12.9,28.7-18.6,59.1-18.8,90.4c-0.1,11.7,1.7,23.2,6.7,34c8.4,18.5,28,22.2,42.4,7.9c8.3-8.3,13.8-18.3,18.3-29
		c12.6-30,17.7-61.7,21-93.8c2.5-24.4,3-48.9,0.9-73.3c-0.3-4,0.9-6.8,3.7-9.7c8.7-8.6,17.8-16.6,29.1-21.7c1.8-0.8,3.5-1.9,5.2-3
		c22.8-16.6,49-26.8,73.7-39.8c21.6-11.4,43.8-21.9,66-32.2c34.3-16,65.8-36.4,94.8-60.7C1341.9,491.3,1344.4,489.4,1347.8,486.7z"
		/>
	<path class="st0" d="M1204.3,402.4c-1-43.4,4.3-86.6,17.9-128.4c6.5-19.9,13.8-39.5,21.8-58.8c9.9-23.9,22.3-46.7,40.7-65.3
		c7.1-7.1,15.4-13.3,24-18.4c12.4-7.3,25.9-7.1,39-1.5c17,7.4,31.1,18.5,42.1,33.5c2.9,3.9,3.6,7.5,2,12.4
		c-14.4,44.5-24.4,90-30,136.4c-2.3,19-10.2,35.2-18.9,51.4c-14,26.3-28.7,52.2-46.3,76.3c-9.7,13.2-21.5,24.6-35.5,33.3
		c-19.5,12.1-32.7,8.7-43.4-11.6c-8-15.1-10.9-31.7-12.6-48.5C1204.8,409.9,1204.6,406.4,1204.3,402.4z"/>
	<path class="st0" d="M449.7,763.5c2.3,21.6,12,39.7,26.6,55.4c15.1,16.2,34.2,22.1,55.8,19.5c22-2.6,41.5-11.6,58.8-25.4
		c2.2-1.8,5.2-2.6,7.3-4.4c1.8-1.6,2.7-4.3,4.3-6.3c3.8-4.6,8.4-8.7,11.5-13.7c7.7-12.4,15.1-25.1,21.8-38.1
		c5.3-10.1,8.5-21.2,12.2-32c0.3-0.9,0.8-1.8,2.4-2.7c1.8,8.2,3.7,16.4,5.4,24.7c7.6,36.2,7.3,72.8,5,109.5
		c-3,47.5-14.6,92.5-40.8,132.7c-9.2,14.1-20.3,27.2-31.8,39.5c-9.9,10.5-22.4,17.6-37.6,19c-17.3,1.5-31.3-5.5-44.1-15.9
		c-17.9-14.6-28.5-34.2-36.6-55.2c-10.3-26.9-15.2-55.1-20-83.4c-5-29.6-6-59.3-5-89.1c0.3-10.3,0.9-20.6,1.5-30.9
		c0.1-1.2,1.1-2.4,1.6-3.6C448.7,763.2,449.2,763.4,449.7,763.5z"/>
	<path class="st0" d="M564,612.8c22.8,7.2,44.1,14.6,56.7,35c7.4,12,13,25.1,19.2,37.8c2.3,4.8,2.5,10,0.6,15.3
		c-5.4,14.5-10,29.4-15.9,43.6c-10,24.1-23.6,45.9-44.7,62.2c-13.6,10.5-28.7,17.6-45.8,19.8c-22.6,3-41.6-3.7-56.5-21.7
		c-9.8-11.9-14.8-25.5-16.8-40.5c-0.3-2.6,0.3-3.9,2.9-4.7c26.9-8.4,48.2-25.3,66.9-45.5c16.8-18.1,29.6-38.8,34.7-63.5
		c2.1-10.3,2.1-20.5,0.1-30.8C565,618,564.6,616,564,612.8z"/>
	<path class="st0" d="M1756.2,279.2c1.2,10.7,2.3,20.4,3.4,30.2c1.2,10.5,2.8,21,3.4,31.5c0.9,18.6-1.2,37-4.2,55.5
		c-3.5,21.6-9.1,42.2-18.9,61.6c-7.1,14.1-15.9,27-28.3,37c-12.9,10.4-21.2,8.2-24.2-8.1c-2.8-15.1-3.7-30.7-4-46.1
		c-0.7-28.6-0.5-57.3-0.6-85.9c-0.1-21.3-0.2-42.6-0.4-63.8c0-4.1,0.7-5.8,5.4-4.2c22.6,7.5,44.3,4.2,65.2-6.3
		C1753.5,280.2,1754.1,280,1756.2,279.2z"/>
	<path class="st0" d="M459.4,750.3c1.9-10.5,3.1-20.7,5.7-30.6c6.9-26.8,17.3-52.1,33.5-74.7c11.3-15.6,26.2-26.2,44.7-31.9
		c4.7-1.4,6.9,0.1,8.6,4.5c5.3,14.1,3.7,28.1-1.1,41.5c-15.2,43.1-44.1,73.3-86.5,90.5c-0.8,0.3-1.6,0.6-2.4,0.8
		C461.6,750.5,461.3,750.4,459.4,750.3z"/>
	<path class="st0" d="M1657.1,229c-2.3-11.6-0.5-22.3,4.2-32.7c3.6-8.1,9.8-13.3,17.7-16.6c10.6-4.4,20.2-2.3,29.3,4
		c15.5,10.8,25.1,26,31.7,43.2c4.1,10.7,7.3,21.8,10.9,32.6c0.8,2.4,0.8,4.3-2.1,5.6c-20.5,9.4-41.2,11.5-62.2,1.7
		c-3.1-1.5-4.6-3.3-4.5-6.9c0.1-3.8-0.3-7.7-0.8-11.5C1679.5,233.9,1672.5,228.1,1657.1,229z"/>
	<path class="st0" d="M1042.2,688.5c0.2,1.7,0.4,3.2,0.4,4.8c-0.3,34.9-3,69.6-11.1,103.6c-2.8,11.8-7,23.2-11.1,34.7
		c-1.5,4.3-4.3,8.3-7.1,11.9c-5.1,6.4-9.6,5.7-12-2.2c-2-6.6-3.2-13.6-3.6-20.6c-0.9-18,3.5-35.4,7.2-52.8
		c5.9-28.1,17.4-53.8,34.1-77.1c0.5-0.7,1-1.3,1.6-1.9C1040.9,688.7,1041.3,688.7,1042.2,688.5z"/>
	<path class="st0" d="M1022,250.9c4.5,4.7,7.8,8.6,11.6,12.1c3.5,3.3,7,7.1,11.3,8.9c8.8,3.7,9.8,9.4,8.3,18
		c-3.4,19.9-7.3,39.6-14.2,58.6c-1.7,4.7-4.5,9.1-6.7,13.7c-0.7,0-1.4,0-2-0.1c-1.4-4.5-3.7-8.8-4.2-13.4
		c-1.4-13.1-2.4-26.2-2.9-39.3c-0.7-17.8-0.8-35.6-1.1-53.4C1022,254.7,1022,253.4,1022,250.9z"/>
	<path class="st0" d="M540.7,603.7c-13.6,5.4-26.3,12.4-37,22.3c-6.5,6-13.3,11.8-18.8,18.7c-4.2,5.2-6.7,11.9-9.5,18.1
		c-5.5,12.5-10.6,25.1-16,37.6c-0.6,1.3-2.2,2.2-3.4,3.2c-0.4-1.5-1.3-3.1-1-4.5c3-13.5,6.9-26.5,11.9-39.5
		c7.5-19.4,18.3-36.1,32.3-51.1c8.1-8.7,17.9-11.7,29.4-10.4c1.6,0.2,3.1,1.7,4.6,2.5c0.4,0.2,0.9,0.3,1.3,0.3
		c2.1,0.3,4.2,0.6,6.3,0.8C540.8,602.4,540.8,603,540.7,603.7z"/>
	<path class="st0" d="M1053.4,255c-4.3-3-8.6-5.6-12.3-8.7c-11.3-9.6-20.4-20.7-20.4-36.6c0-4.1,0.7-8.3,2-12.1
		c1.9-5.6,5.6-6.6,9.8-2.5c3.3,3.2,6.4,6.9,8.6,10.9c8.1,14.5,11.5,30.3,13,46.7C1054.2,253.1,1053.9,253.6,1053.4,255z"/>
	<path class="st0" d="M1505.8,179.3c-8-7.2-12-18.1-9.2-25.2C1502.2,156.9,1507.2,170.6,1505.8,179.3z"/>
	<path class="st0" d="M448.1,752.6c0-0.2-0.4-1-0.3-1.9c1.7-14,3.6-28,5.3-42c0.3-2.9,1.4-3.8,3.4-2.9
		C453.6,721.7,450.8,737.4,448.1,752.6z"/>
	<path class="st0" d="M394.2,370.7c0.4,6.8,1.2,13.6,1.2,20.4c0.3,30.1,1,60.3,0.3,90.4c-1,41.7-5.9,83.1-11.8,124.3
		c-7.6,52.8-17.9,105-34.5,155.8c-10.3,31.5-24.3,61.2-44.4,87.8c-8.7,11.5-18.7,22-31,29.9c-10.4,6.6-21.2,6.6-30.9-0.6
		c-7.6-5.6-14.7-12.1-20.7-19.3c-18.8-22.5-32.4-48.1-41.9-75.7c-7-20.5-13.2-41.3-18.5-62.2c-4.5-17.9-8.1-36.2-10.7-54.6
		c-3.5-24.8-5.9-49.8-8.3-74.7c-1.8-18.8-3.3-37.6-4.1-56.5c-0.9-19.8-1-39.6-1.1-59.3c0-14.3,0.5-28.6,0.9-42.9
		c0.1-3.6,0.9-7.3,0.5-10.9c-0.8-7.2,2.9-11.7,8-16c40.9-34.2,71.1-76.4,92.1-125.1c14.2-33.1,22.9-67.8,28.4-103.3
		c2.9-18.9,2-37.9-2.2-56.6c-0.7-3.1-1.9-6-3.2-10.1c3.1,0.6,5.4,0.8,7.7,1.5c17.6,5.4,31.2,17.1,43.8,29.7
		c23.3,23.3,38.2,51.9,49.3,82.5c13.3,36.8,22.4,74.6,27.9,113.3c0.9,6.6-1.2,11.7-4,16.8c-17.9,31.6-35.2,63.6-54.4,94.3
		c-12.8,20.4-30.7,36.5-52.9,47c-17.4,8.2-38.1,2.2-46.9-15c-4.7-9.2-6.6-19.7-9.7-29.7c-0.6-2.1-1-4.3-2-6.1
		c-0.6-1.1-2.5-2.5-3.3-2.3c-1.3,0.4-2.9,2-3.2,3.3c-0.6,3.1-0.6,6.3-0.6,9.4c0.1,12.7,1.8,25,9.1,35.8c11.7,17.3,33.6,28,55.3,20.5
		c19.1-6.6,33.8-19.5,47.7-33.8c11.4-11.8,20.2-25.4,28.3-39.5c12.7-22.1,24.9-44.5,37.4-66.8c0.4-0.7,0.9-1.3,1.3-1.9
		C393.5,370.6,393.8,370.7,394.2,370.7z"/>
	<path class="st0" d="M141.6,386.1c1.6-8.2,3.5-16.3,4.7-24.6c1.5-10.4,1.6-20.9,3.5-31.2c4.9-26.7,10.5-53.2,15.9-79.8
		c1-4.7,2.4-9.3,3.8-13.9c0.4-1.2,1.9-2,2.1-2.2c0-2.5-0.5-4.6,0.1-6.4c5.3-16.4,10.8-32.8,16.1-49.1c5.9-18.1,13.8-35.2,24.1-51.2
		c3.6-5.5,7.9-10.7,12.4-15.5c4.2-4.4,8.3-4.2,12.5,0.4c3.8,4.1,7.4,8.7,10,13.6c8.8,17.1,10,35.4,7.2,54
		c-2.1,13.7-4.7,27.4-8.3,40.8c-11.5,42.2-30.4,80.8-56.5,115.9c-12.6,16.9-26.3,32.8-41.9,47.1c-1.3,1.2-2.9,2-4.4,3
		C142.5,386.7,142,386.4,141.6,386.1z"/>
	<path class="st0" d="M760.4,222.5c1.8-5.8,2.8-10.6,4.7-15.1c3.6-8.4,7.4-16.6,11.6-24.7c2-3.8,5.1-7.4,10.3-6
		c3.4,0.9,5.9,6.8,5.3,12c-0.9,8.8-6.1,15.3-12.2,21.2C774.8,215.1,768.9,219.6,760.4,222.5z"/>
</g>
</svg>
